<svg width="770" height="803" viewBox="0 0 770 803" fill="none" xmlns="http://www.w3.org/2000/svg">
<ellipse cx="380.488" cy="379.108" rx="376.31" ry="379.108" fill="#4F56DC"/>
<ellipse cx="384.518" cy="429.12" rx="381.695" ry="370.709" transform="rotate(0.437916 384.518 429.12)" fill="#636BE7"/>
<g clip-path="url(#clip0_4_51)">
<path d="M179.773 625.785C227.82 625.785 266.77 622.816 266.77 619.154C266.77 615.492 227.82 612.523 179.773 612.523C131.726 612.523 92.7764 615.492 92.7764 619.154C92.7764 622.816 131.726 625.785 179.773 625.785Z" fill="#E6E6E6"/>
<path d="M207.949 328.295L173.242 318.836C182.51 310.096 186.542 301.863 185.337 294.136H207.949V328.295Z" fill="#9F616A"/>
<path d="M211.631 594.209L200.42 595.785L186.915 471.763L165.354 595.26L153.785 595.785V439.18H225.303L211.631 594.209Z" fill="#292830"/>
<path d="M159.608 619.211C161.367 619.261 163.093 618.721 164.51 617.678C165.928 616.634 166.955 615.147 167.428 613.452L168.247 601.24L166.596 592.579C162.241 589.002 157.837 589.077 153.39 592.579L151.972 610.72C151.888 611.785 152.023 612.855 152.366 613.866C152.709 614.877 153.254 615.807 153.968 616.601C154.682 617.395 155.55 618.036 156.52 618.485C157.489 618.933 158.54 619.18 159.608 619.211V619.211Z" fill="#2F2E41"/>
<path d="M205.884 619.211C207.643 619.261 209.369 618.721 210.787 617.678C212.204 616.634 213.231 615.147 213.704 613.452L214.523 601.24L212.872 592.579C208.517 589.002 204.114 589.077 199.666 592.579L198.248 610.72C198.165 611.785 198.299 612.855 198.642 613.866C198.985 614.877 199.53 615.807 200.244 616.601C200.958 617.395 201.827 618.036 202.796 618.485C203.765 618.933 204.816 619.18 205.884 619.211V619.211Z" fill="#2F2E41"/>
<path d="M203.217 310.428C214.253 310.428 223.2 301.487 223.2 290.458C223.2 279.429 214.253 270.488 203.217 270.488C192.181 270.488 183.234 279.429 183.234 290.458C183.234 301.487 192.181 310.428 203.217 310.428Z" fill="#9F616A"/>
<path d="M228.458 441.808H152.208C162.091 396.036 162.063 359.172 154.191 329.359C153.689 327.461 153.907 325.445 154.802 323.697C155.696 321.949 157.205 320.593 159.039 319.889L179.553 312.004C185.712 319.953 194.402 323.424 207.95 318.31L218.699 320.514C221.317 321.047 223.652 322.511 225.273 324.633C226.894 326.755 227.69 329.392 227.515 332.056C226.724 343.716 227.035 355.465 226.355 365.607C224.247 397.015 223.336 421.5 228.458 441.808Z" fill="#FD7E40"/>
<path d="M192.699 264.182C192.699 264.182 204.268 251.044 217.941 263.656L221.622 264.707L218.993 266.809C218.993 266.809 232.665 273.116 231.613 286.254C231.613 286.254 229.51 285.728 228.458 286.254C227.407 286.779 226.881 292.56 226.881 292.56C226.881 292.56 225.303 288.356 224.777 287.83C224.251 287.305 216.889 293.611 204.794 284.152C204.794 284.152 201.113 293.611 196.906 292.56C192.7 291.509 186.915 292.034 184.286 298.866C184.286 298.866 170.087 268.386 192.699 264.182Z" fill="#141414"/>
<path d="M232.139 430.247L225.389 439.288C224.686 440.23 224.177 441.302 223.892 442.442C223.608 443.582 223.553 444.767 223.731 445.929C223.909 447.09 224.316 448.205 224.929 449.207C225.542 450.21 226.349 451.081 227.301 451.769V451.769C228.529 452.655 229.962 453.213 231.466 453.389C232.97 453.564 234.494 453.352 235.893 452.772C237.291 452.193 238.518 451.265 239.456 450.077C240.394 448.889 241.012 447.481 241.251 445.987L243.182 433.925L246.864 381.899L244.234 355.622L227.407 361.929L232.139 384.526V430.247Z" fill="#9F616A"/>
<path d="M225.303 368.235L245.812 358.776L244.76 351.33C244.76 345.165 242.895 339.145 239.41 334.059C235.925 328.973 230.982 325.058 225.231 322.83L218.993 320.413L225.303 368.235Z" fill="#FD7E40"/>
<path d="M150.63 428.144L157.381 437.186C158.084 438.128 158.592 439.2 158.877 440.34C159.162 441.48 159.217 442.665 159.039 443.826C158.861 444.988 158.453 446.102 157.84 447.105C157.227 448.108 156.421 448.978 155.468 449.667V449.667C154.241 450.553 152.807 451.111 151.303 451.286C149.799 451.462 148.276 451.25 146.877 450.67C145.478 450.091 144.252 449.163 143.314 447.975C142.376 446.787 141.757 445.379 141.518 443.885L139.587 431.823L135.906 379.796L138.535 353.52L155.363 359.827L150.63 382.424V428.144Z" fill="#9F616A"/>
<path d="M157.466 366.133L136.958 356.673L138.009 349.228C138.009 343.063 139.875 337.043 143.36 331.957C146.845 326.871 151.788 322.956 157.539 320.728L163.777 318.31L157.466 366.133Z" fill="#FD7E40"/>
<path d="M694.38 567.211H343.444C341.978 567.21 340.573 566.627 339.536 565.591C338.5 564.555 337.917 563.151 337.915 561.686V409.173C337.917 407.708 338.5 406.303 339.536 405.267C340.573 404.231 341.978 403.648 343.444 403.647H694.38C695.846 403.648 697.251 404.231 698.288 405.267C699.325 406.303 699.908 407.708 699.909 409.173V561.686C699.908 563.151 699.325 564.555 698.288 565.591C697.251 566.627 695.846 567.21 694.38 567.211V567.211ZM343.444 405.857C342.565 405.858 341.722 406.208 341.1 406.829C340.478 407.451 340.128 408.294 340.127 409.173V561.686C340.128 562.565 340.478 563.407 341.1 564.029C341.722 564.651 342.565 565 343.444 565.001H694.38C695.259 565 696.103 564.651 696.725 564.029C697.347 563.407 697.697 562.565 697.697 561.686V409.173C697.696 408.294 697.347 407.451 696.725 406.829C696.103 406.208 695.259 405.858 694.38 405.857H343.444Z" fill="#E6E6E6"/>
<path d="M357.821 422.435C356.941 422.435 356.097 422.784 355.475 423.406C354.853 424.027 354.503 424.871 354.503 425.75C354.503 426.629 354.853 427.473 355.475 428.095C356.097 428.716 356.941 429.066 357.821 429.066H404.268C405.148 429.066 405.992 428.716 406.614 428.095C407.236 427.473 407.586 426.629 407.586 425.75C407.586 424.871 407.236 424.027 406.614 423.406C405.992 422.784 405.148 422.435 404.268 422.435H357.821Z" fill="#E6E6E6"/>
<path d="M675.794 445.492V506.976H362.583V474.604C364.752 473.212 366.934 471.826 369.136 470.487C378.539 464.737 388.603 459.359 399.572 457.365C404.76 456.399 410.075 456.333 415.285 457.169C420.789 458.078 426.058 459.973 431.273 461.874C436.417 463.756 441.574 465.697 446.954 466.788C452.196 467.817 457.578 467.923 462.857 467.102C472.928 465.593 482.39 461.548 491.812 457.888C501.294 454.209 511.063 450.733 521.325 450.275C531.455 449.818 541.461 452.21 551.073 455.176C570.672 461.221 590.683 470.186 611.435 464.037C632.508 457.803 651.89 439.807 675.243 445.146C675.464 445.187 675.661 445.311 675.794 445.492V445.492Z" fill="#E6E6E6"/>
<path d="M675.794 446.564C675.694 446.751 675.534 446.9 675.339 446.985C675.145 447.07 674.927 447.088 674.721 447.034C671.939 446.397 669.088 446.103 666.234 446.159C643.263 446.564 625.602 465.044 603.141 467.808C582.89 470.297 563.829 460.456 544.788 455.314C534.895 452.641 524.694 451.223 514.513 453.04C504.411 454.837 494.929 458.966 485.409 462.632C476.242 466.161 466.714 469.441 456.788 469.605C445.875 469.788 436.047 465.292 425.925 461.868C420.661 460.084 415.26 458.672 409.683 458.535C404.247 458.47 398.838 459.307 393.676 461.012C382.919 464.429 373.229 470.52 363.793 476.571C363.631 476.685 363.435 476.738 363.237 476.721C363.034 476.694 362.843 476.605 362.691 476.467C362.539 476.329 362.432 476.148 362.385 475.948C362.339 475.748 362.354 475.539 362.429 475.348C362.504 475.157 362.635 474.993 362.806 474.878L363.237 474.604C365.402 473.212 367.579 471.826 369.776 470.487C379.159 464.737 389.203 459.359 400.149 457.365C405.326 456.399 410.63 456.333 415.829 457.169C421.322 458.078 426.579 459.973 431.784 461.874C436.917 463.756 442.063 465.697 447.431 466.788C452.663 467.817 458.033 467.923 463.301 467.102C473.351 465.593 482.793 461.548 492.196 457.888C501.658 454.209 511.407 450.733 521.647 450.276C531.756 449.818 541.741 452.21 551.333 455.176C570.891 461.221 590.861 470.186 611.569 464.037C632.598 457.803 651.94 439.807 675.244 445.146C675.465 445.187 675.662 445.311 675.794 445.492C675.895 445.653 675.948 445.838 675.948 446.028C675.948 446.218 675.895 446.403 675.794 446.564V446.564Z" fill="#6C63FF"/>
<path d="M405.74 462.541C408.268 462.541 410.317 460.493 410.317 457.967C410.317 455.44 408.268 453.393 405.74 453.393C403.212 453.393 401.163 455.44 401.163 457.967C401.163 460.493 403.212 462.541 405.74 462.541Z" fill="#6C63FF"/>
<path d="M521.477 456.66C524.005 456.66 526.054 454.612 526.054 452.086C526.054 449.559 524.005 447.511 521.477 447.511C518.949 447.511 516.9 449.559 516.9 452.086C516.9 454.612 518.949 456.66 521.477 456.66Z" fill="#6C63FF"/>
<path d="M662.716 450.779C665.244 450.779 667.293 448.731 667.293 446.204C667.293 443.678 665.244 441.63 662.716 441.63C660.188 441.63 658.139 443.678 658.139 446.204C658.139 448.731 660.188 450.779 662.716 450.779Z" fill="#6C63FF"/>
<path d="M403.162 532.951C402.283 532.951 401.439 533.301 400.816 533.922C400.194 534.544 399.845 535.387 399.845 536.267C399.845 537.146 400.194 537.989 400.816 538.611C401.439 539.233 402.283 539.582 403.162 539.582H449.61C450.49 539.582 451.334 539.233 451.956 538.611C452.578 537.989 452.927 537.146 452.927 536.267C452.927 535.387 452.578 534.544 451.956 533.922C451.334 533.301 450.49 532.951 449.61 532.951H403.162Z" fill="#E6E6E6"/>
<path d="M373.303 548.424C380.225 548.424 385.837 542.816 385.837 535.898C385.837 528.981 380.225 523.373 373.303 523.373C366.381 523.373 360.77 528.981 360.77 535.898C360.77 542.816 366.381 548.424 373.303 548.424Z" fill="#6C63FF"/>
<path d="M515.226 532.951C514.346 532.951 513.502 533.301 512.88 533.922C512.258 534.544 511.908 535.387 511.908 536.267C511.908 537.146 512.258 537.989 512.88 538.611C513.502 539.233 514.346 539.582 515.226 539.582H561.673C562.553 539.582 563.397 539.233 564.019 538.611C564.641 537.989 564.991 537.146 564.991 536.267C564.991 535.387 564.641 534.544 564.019 533.922C563.397 533.301 562.553 532.951 561.673 532.951H515.226Z" fill="#E6E6E6"/>
<path d="M485.367 548.424C492.289 548.424 497.9 542.816 497.9 535.898C497.9 528.981 492.289 523.373 485.367 523.373C478.445 523.373 472.833 528.981 472.833 535.898C472.833 542.816 478.445 548.424 485.367 548.424Z" fill="#6C63FF"/>
<path d="M627.289 532.951C626.409 532.951 625.565 533.301 624.943 533.922C624.321 534.544 623.972 535.387 623.972 536.267C623.972 537.146 624.321 537.989 624.943 538.611C625.565 539.233 626.409 539.582 627.289 539.582H673.737C674.616 539.582 675.46 539.233 676.083 538.611C676.705 537.989 677.054 537.146 677.054 536.267C677.054 535.387 676.705 534.544 676.083 533.922C675.46 533.301 674.616 532.951 673.737 532.951H627.289Z" fill="#E6E6E6"/>
<path d="M597.43 548.424C604.352 548.424 609.964 542.816 609.964 535.898C609.964 528.981 604.352 523.373 597.43 523.373C590.508 523.373 584.897 528.981 584.897 535.898C584.897 542.816 590.508 548.424 597.43 548.424Z" fill="#6C63FF"/>
<path d="M670.359 362.468H497.223C493.848 362.468 491.112 360.521 491.109 358.121V320.514C491.112 318.115 493.848 316.167 497.223 316.167H670.359C673.734 316.167 676.47 318.115 676.473 320.514V358.12C676.47 360.52 673.734 362.465 670.359 362.468ZM497.223 317.905C495.197 317.905 493.556 319.073 493.554 320.513V358.119C493.554 359.558 495.197 360.725 497.223 360.727H670.359C672.385 360.727 674.026 359.558 674.028 358.119V320.514C674.028 319.075 672.385 317.908 670.359 317.906L497.223 317.905Z" fill="#E6E6E6"/>
<path d="M536.37 337.539C535.392 337.54 534.455 337.929 533.764 338.619C533.073 339.31 532.685 340.246 532.683 341.223V367.01C532.685 367.987 533.073 368.923 533.764 369.614C534.455 370.305 535.392 370.693 536.37 370.694H668.339C669.316 370.693 670.253 370.305 670.944 369.614C671.636 368.923 672.024 367.987 672.025 367.01V341.223C672.024 340.246 671.636 339.31 670.944 338.619C670.253 337.929 669.316 337.54 668.339 337.539H536.37Z" fill="#6C63FF"/>
<path d="M554.801 362.59C559.28 362.59 562.911 358.961 562.911 354.485C562.911 350.009 559.28 346.381 554.801 346.381C550.322 346.381 546.691 350.009 546.691 354.485C546.691 358.961 550.322 362.59 554.801 362.59Z" fill="white"/>
<path d="M591.761 350.967C590.881 350.967 590.038 351.317 589.415 351.938C588.793 352.56 588.444 353.403 588.444 354.283C588.444 355.162 588.793 356.005 589.415 356.627C590.038 357.249 590.881 357.598 591.761 357.598H638.209C639.089 357.598 639.932 357.249 640.555 356.627C641.177 356.005 641.526 355.162 641.526 354.283C641.526 353.403 641.177 352.56 640.555 351.938C639.932 351.317 639.089 350.967 638.209 350.967H591.761Z" fill="white"/>
<path d="M540.602 274.791H367.465C364.09 274.791 361.355 272.844 361.351 270.444V232.838C361.355 230.438 364.09 228.491 367.465 228.491H540.602C543.977 228.491 546.712 230.438 546.716 232.838V270.444C546.713 272.843 543.977 274.788 540.602 274.791ZM367.465 230.228C365.44 230.228 363.799 231.397 363.797 232.836V270.442C363.797 271.882 365.44 273.049 367.465 273.05H540.602C542.627 273.05 544.268 271.882 544.27 270.442V232.838C544.27 231.398 542.627 230.231 540.602 230.23L367.465 230.228Z" fill="#E6E6E6"/>
<path d="M406.612 249.863C405.635 249.864 404.698 250.252 404.007 250.943C403.316 251.634 402.927 252.57 402.926 253.547V279.334C402.927 280.31 403.316 281.247 404.007 281.937C404.698 282.628 405.635 283.016 406.612 283.018H538.582C539.559 283.016 540.496 282.628 541.187 281.937C541.878 281.247 542.267 280.31 542.268 279.334V253.547C542.267 252.57 541.878 251.634 541.187 250.943C540.496 250.252 539.559 249.864 538.582 249.863H406.612Z" fill="#6C63FF"/>
<path d="M425.044 274.913C429.523 274.913 433.153 271.285 433.153 266.809C433.153 262.333 429.523 258.704 425.044 258.704C420.565 258.704 416.934 262.333 416.934 266.809C416.934 271.285 420.565 274.913 425.044 274.913Z" fill="white"/>
<path d="M462.004 263.291C461.124 263.291 460.28 263.64 459.658 264.262C459.036 264.884 458.686 265.727 458.686 266.606C458.686 267.486 459.036 268.329 459.658 268.951C460.28 269.572 461.124 269.922 462.004 269.922H508.451C509.331 269.922 510.175 269.572 510.797 268.951C511.419 268.329 511.769 267.486 511.769 266.606C511.769 265.727 511.419 264.884 510.797 264.262C510.175 263.64 509.331 263.291 508.451 263.291H462.004Z" fill="white"/>
</g>
<defs>
<clipPath id="clip0_4_51">
<rect width="607.133" height="397.294" fill="white" transform="translate(92.7764 228.491)"/>
</clipPath>
</defs>
</svg>
